<svg class="svg-icon" style="width: 1em; height: 1em;vertical-align: middle;fill: currentColor;overflow: hidden;" viewBox="0 0 1024 1024" version="1.1" xmlns="http://www.w3.org/2000/svg"><path d="M512 64C264.58 64 64 264.58 64 512s200.58 448 448 448 448-200.58 448-448S759.42 64 512 64z m0 816c-203.24 0-368-164.76-368-368s164.76-368 368-368 368 164.76 368 368-164.76 368-368 368z" fill="#999999" /><path d="M688 472H552V272a40 40 0 0 0-80 0v240a40 40 0 0 0 40 40h176a40 40 0 0 0 40-40 40 40 0 0 0-40-40z" fill="#999999" /></svg>